Coordinates
version=1
nRows=60
nColumns=12
inDegrees=yes

Units are S.I. units (second, meters, Newtons, ...)
Angles are in degrees

endheader
time	SC_y	SC_z	SC_x	AC_y	AC_z	AC_x	GH_y	GH_z	GH_yy	EL_x	PS_y
       0.0              -20.43          7.505          48.34          50.61         -15.83          17.23          -57.5          54.14         -65.34          121.8          111.5
   0.04517              -20.43          7.509          48.33          50.61         -15.83          17.23         -57.48          54.13         -65.34          121.8          111.5
   0.09034              -20.43          7.512          48.33          50.61         -15.82          17.23         -57.46          54.13         -65.34          121.8          111.5
    0.1355              -20.43          7.516          48.33          50.62         -15.82          17.23         -57.44          54.13         -65.34          121.8          111.5
    0.1807              -20.43          7.521          48.32          50.62         -15.82          17.23         -57.42          54.13         -65.34          121.8          111.5
    0.2258              -20.43          7.525          48.32          50.62         -15.81          17.23          -57.4          54.12         -65.35          121.8          111.5
     0.271              -20.43           7.53          48.31          50.63         -15.81          17.22         -57.37          54.12         -65.35          121.8          111.5
    0.3162              -20.43          7.535          48.31          50.63          -15.8          17.22         -57.34          54.12         -65.35          121.8          111.5
    0.3613              -20.43           7.54           48.3          50.63          -15.8          17.22         -57.31          54.11         -65.35          121.8          111.5
    0.4065              -20.43          7.546          48.29          50.64         -15.79          17.22         -57.28          54.11         -65.36          121.8          111.5
    0.4517              -20.43          7.552          48.29          50.64         -15.79          17.22         -57.25           54.1         -65.36          121.8          111.5
    0.4969              -20.43          7.559          48.28          50.65         -15.78          17.22         -57.21           54.1         -65.36          121.8          111.5
     0.542              -20.43          7.566          48.27          50.65         -15.77          17.21         -57.17          54.09         -65.36          121.8          111.6
    0.5872              -20.43          7.574          48.26          50.66         -15.77          17.21         -57.13          54.09         -65.37          121.8          111.6
    0.6324              -20.43          7.582          48.26          50.67         -15.76          17.21         -57.09          54.08         -65.37          121.8          111.6
    0.6775              -20.43          7.591          48.25          50.67         -15.75          17.21         -57.04          54.07         -65.38          121.8          111.6
    0.7227              -20.43          7.601          48.24          50.68         -15.74           17.2         -56.98          54.07         -65.38          121.8          111.6
    0.7679              -20.43          7.612          48.22          50.69         -15.73           17.2         -56.93          54.06         -65.39          121.8          111.6
     0.813              -20.43          7.624          48.21           50.7         -15.72          17.19         -56.86          54.05         -65.39          121.9          111.6
    0.8582              -20.43          7.637           48.2          50.71         -15.71          17.19         -56.79          54.04          -65.4          121.9          111.6
    0.9034              -20.44          7.651          48.18          50.72          -15.7          17.19         -56.72          54.03          -65.4          121.9          111.6
    0.9485              -20.44          7.667          48.17          50.73         -15.68          17.18         -56.63          54.02         -65.41          121.9          111.6
    0.9937              -20.44          7.684          48.15          50.74         -15.67          17.18         -56.54          54.01         -65.42          121.9          111.6
     1.039              -20.44          7.703          48.13          50.76         -15.65          17.17         -56.43          53.99         -65.43          121.9          111.6
     1.084              -20.44          7.724          48.11          50.77         -15.63          17.16         -56.32          53.98         -65.44          121.9          111.6
     1.129              -20.44          7.748          48.08          50.79         -15.61          17.16         -56.19          53.96         -65.45          121.9          111.6
     1.174              -20.44          7.775          48.05          50.81         -15.58          17.15         -56.05          53.94         -65.46          122.0          111.6
      1.22              -20.44          7.805          48.02          50.83         -15.55          17.14         -55.89          53.92         -65.48          122.0          111.6
     1.265              -20.45          7.838          47.99          50.86         -15.52          17.13         -55.71           53.9         -65.49          122.0          111.6
      1.31              -20.45          7.877          47.95          50.89         -15.49          17.11          -55.5          53.87         -65.51          122.0          111.7
     1.355              -20.45          7.921           47.9          50.92         -15.45           17.1         -55.26          53.84         -65.53          122.1          111.7
       1.4              -20.45          7.971          47.85          50.96          -15.4          17.08         -54.99           53.8         -65.55          122.1          111.7
     1.445              -20.46          8.029          47.78           51.0         -15.35          17.07         -54.68          53.76         -65.58          122.1          111.7
     1.491              -20.46          8.096          47.71          51.05         -15.29          17.05         -54.31          53.71         -65.61          122.2          111.7
     1.536              -20.46          8.175          47.63          51.11         -15.21          17.02         -53.89          53.65         -65.65          122.2          111.7
     1.581              -20.47          8.268          47.53          51.18         -15.13          16.99         -53.39          53.58         -65.69          122.3          111.8
     1.626              -20.48          8.379          47.42          51.26         -15.03          16.96         -52.79           53.5         -65.74          122.4          111.8
     1.671              -20.48          8.511          47.28          51.36          -14.9          16.91         -52.08          53.41          -65.8          122.4          111.9
     1.716              -20.49          8.671          47.11          51.48         -14.76          16.86         -51.21          53.29         -65.88          122.6          111.9
     1.762               -20.5          8.867           46.9          51.63         -14.58           16.8         -50.16          53.15         -65.97          122.7          112.0
     1.807              -20.52          9.109          46.64          51.81         -14.35          16.72         -48.86          52.97         -66.08          122.8          112.0
     1.852              -20.53           9.41          46.33          52.03         -14.07          16.63         -47.23          52.75         -66.22          123.0          112.1
     1.897              -20.55           9.79          45.93          52.32         -13.73          16.51         -45.18          52.48          -66.4          123.3          112.3
     1.942              -20.58          10.27          45.42          52.68         -13.28          16.36         -42.58          52.13         -66.62          123.6          112.4
     1.987              -20.61          10.89          44.76          53.14         -12.71          16.16         -39.25          51.68         -66.91          124.0          112.6
     2.033              -20.66          11.68          43.93          53.73         -11.98          15.91         -34.98          51.11         -67.27          124.6          112.9
     2.078              -20.71          12.69          42.86          54.49         -11.05          15.59         -29.52          50.37         -67.74          125.2          113.2
     2.123              -20.78          13.97          41.52          55.44         -9.875          15.19         -22.66          49.45         -68.33          126.1          113.6
     2.168              -20.87          15.52          39.88           56.6         -8.446           14.7         -14.29          48.32         -69.05          127.1          114.1
     2.213              -20.97          17.32          37.98          57.94         -6.789          14.13         -4.597          47.02         -69.88          128.3          114.7
     2.258              -21.08          19.26          35.93           59.4         -4.995          13.51          5.901           45.6         -70.79          129.6          115.3
     2.304              -21.18          21.21          33.87          60.85         -3.201          12.89           16.4          44.19         -71.69          130.9          116.0
     2.349              -21.28          23.01          31.97           62.2         -1.544          12.32          26.09          42.88         -72.52          132.1          116.5
     2.394              -21.37          24.56          30.33          63.36        -0.1146          11.83          34.46          41.76         -73.24          133.2          117.0
     2.439              -21.44          25.83          28.99          64.31          1.058          11.43          41.32          40.83         -73.83          134.0          117.5
     2.484               -21.5          26.85          27.92          65.06          1.991          11.11          46.78           40.1          -74.3          134.7          117.8
     2.529              -21.54          27.64          27.09          65.66          2.722          10.86          51.05          39.52         -74.67          135.2          118.0
     2.575              -21.57          28.26          26.43          66.12          3.291          10.66          54.38          39.08         -74.95          135.6          118.2
      2.62               -21.6          28.74          25.92          66.48          3.735          10.51          56.99          38.73         -75.18          135.9          118.4
     2.665              -21.62          29.12          25.52          66.76          4.085          10.39          59.03          38.45         -75.35          136.2          118.5
